<mxfile host="app.diagrams.net" modified="2022-09-03T11:21:32.037Z" agent="5.0 (Macintosh; Intel Mac OS X 10_15_7) AppleWebKit/537.36 (KHTML, like Gecko) Chrome/104.0.0.0 Safari/537.36" etag="P0QDMcNgviONEqSTVeDt" version="20.2.8" type="github">
  <diagram id="R2lEEEUBdFMjLlhIrx00" name="SDS">
    <mxGraphModel dx="946" dy="646" grid="1" gridSize="10" guides="1" tooltips="1" connect="1" arrows="1" fold="1" page="1" pageScale="1" pageWidth="850" pageHeight="1100" background="#114B5F" math="0" shadow="0" extFonts="Permanent Marker^https://fonts.googleapis.com/css?family=Permanent+Marker">
      <root>
        <mxCell id="0" />
        <mxCell id="1" parent="0" />
        <mxCell id="4LoAizyBrCG8lXuuI-Wr-1" value="&lt;font style=&quot;font-size: 18px;&quot;&gt;로그인정보&lt;/font&gt;" style="rounded=1;whiteSpace=wrap;html=1;strokeColor=#028090;fontColor=#E4FDE1;fillColor=#F45B69;strokeWidth=5;shadow=1;" vertex="1" parent="1">
          <mxGeometry x="160" y="220" width="120" height="60" as="geometry" />
        </mxCell>
        <mxCell id="4LoAizyBrCG8lXuuI-Wr-2" value="&lt;font style=&quot;font-size: 18px;&quot;&gt;소유&lt;/font&gt;" style="rhombus;whiteSpace=wrap;html=1;strokeColor=#028090;fontColor=#E4FDE1;fillColor=#F45B69;strokeWidth=5;rounded=1;shadow=1;" vertex="1" parent="1">
          <mxGeometry x="360" y="260" width="80" height="80" as="geometry" />
        </mxCell>
        <mxCell id="4LoAizyBrCG8lXuuI-Wr-3" value="&lt;font style=&quot;font-size: 18px;&quot;&gt;위치정보&lt;/font&gt;" style="rounded=1;whiteSpace=wrap;html=1;strokeColor=#028090;fontColor=#E4FDE1;fillColor=#F45B69;strokeWidth=5;shadow=1;" vertex="1" parent="1">
          <mxGeometry x="520" y="220" width="120" height="60" as="geometry" />
        </mxCell>
        <mxCell id="4LoAizyBrCG8lXuuI-Wr-4" value="" style="endArrow=none;html=1;rounded=0;strokeColor=#028090;fontColor=#E4FDE1;fillColor=#F45B69;entryX=0;entryY=0.5;entryDx=0;entryDy=0;exitX=1;exitY=0.5;exitDx=0;exitDy=0;targetPerimeterSpacing=5;strokeWidth=5;shadow=1;" edge="1" parent="1" source="4LoAizyBrCG8lXuuI-Wr-2" target="4LoAizyBrCG8lXuuI-Wr-3">
          <mxGeometry width="50" height="50" relative="1" as="geometry">
            <mxPoint x="400" y="360" as="sourcePoint" />
            <mxPoint x="450" y="310" as="targetPoint" />
            <Array as="points">
              <mxPoint x="480" y="300" />
              <mxPoint x="480" y="250" />
            </Array>
          </mxGeometry>
        </mxCell>
        <mxCell id="4LoAizyBrCG8lXuuI-Wr-7" value="이름" style="ellipse;whiteSpace=wrap;html=1;aspect=fixed;rounded=1;shadow=1;strokeColor=#028090;strokeWidth=5;fontSize=18;fontColor=#E4FDE1;fillColor=#F45B69;" vertex="1" parent="1">
          <mxGeometry x="160" y="110" width="80" height="80" as="geometry" />
        </mxCell>
        <mxCell id="4LoAizyBrCG8lXuuI-Wr-8" value="아이디" style="ellipse;whiteSpace=wrap;html=1;aspect=fixed;rounded=1;shadow=1;strokeColor=#028090;strokeWidth=5;fontSize=18;fontColor=#E4FDE1;fillColor=#F45B69;" vertex="1" parent="1">
          <mxGeometry x="60" y="210" width="80" height="80" as="geometry" />
        </mxCell>
        <mxCell id="4LoAizyBrCG8lXuuI-Wr-9" value="비밀번호" style="ellipse;whiteSpace=wrap;html=1;aspect=fixed;rounded=1;shadow=1;strokeColor=#028090;strokeWidth=5;fontSize=18;fontColor=#E4FDE1;fillColor=#F45B69;" vertex="1" parent="1">
          <mxGeometry x="60" y="110" width="80" height="80" as="geometry" />
        </mxCell>
        <mxCell id="4LoAizyBrCG8lXuuI-Wr-11" value="" style="endArrow=none;html=1;rounded=0;shadow=1;strokeColor=#028090;strokeWidth=5;fontSize=18;fontColor=#E4FDE1;targetPerimeterSpacing=5;fillColor=#F45B69;exitX=0;exitY=0.5;exitDx=0;exitDy=0;entryX=1;entryY=0.5;entryDx=0;entryDy=0;" edge="1" parent="1" source="4LoAizyBrCG8lXuuI-Wr-2" target="4LoAizyBrCG8lXuuI-Wr-1">
          <mxGeometry width="50" height="50" relative="1" as="geometry">
            <mxPoint x="400" y="270" as="sourcePoint" />
            <mxPoint x="300" y="250" as="targetPoint" />
            <Array as="points">
              <mxPoint x="320" y="300" />
              <mxPoint x="320" y="250" />
            </Array>
          </mxGeometry>
        </mxCell>
        <mxCell id="4LoAizyBrCG8lXuuI-Wr-12" value="&lt;font style=&quot;font-size: 18px;&quot;&gt;사용자&lt;/font&gt;" style="rounded=1;whiteSpace=wrap;html=1;strokeColor=#028090;fontColor=#E4FDE1;fillColor=#F45B69;strokeWidth=5;shadow=1;" vertex="1" parent="1">
          <mxGeometry x="340" y="90" width="120" height="60" as="geometry" />
        </mxCell>
        <mxCell id="4LoAizyBrCG8lXuuI-Wr-13" value="" style="endArrow=none;html=1;rounded=0;shadow=1;strokeColor=#028090;strokeWidth=5;fontSize=18;fontColor=#E4FDE1;targetPerimeterSpacing=5;fillColor=#F45B69;entryX=0.5;entryY=1;entryDx=0;entryDy=0;exitX=0.5;exitY=0;exitDx=0;exitDy=0;" edge="1" parent="1" source="4LoAizyBrCG8lXuuI-Wr-2" target="4LoAizyBrCG8lXuuI-Wr-12">
          <mxGeometry width="50" height="50" relative="1" as="geometry">
            <mxPoint x="400" y="270" as="sourcePoint" />
            <mxPoint x="450" y="220" as="targetPoint" />
          </mxGeometry>
        </mxCell>
      </root>
    </mxGraphModel>
  </diagram>
</mxfile>
